<?xml version="1.0" standalone="no"?>
<!DOCTYPE svg PUBLIC "-//W3C//DTD SVG 20010904//EN"
 "http://www.w3.org/TR/2001/REC-SVG-20010904/DTD/svg10.dtd">
<svg version="1.0" xmlns="http://www.w3.org/2000/svg"
 width="700.000000pt" height="700.000000pt" viewBox="0 0 512.000000 512.000000"
 preserveAspectRatio="xMidYMid meet">

<g transform="translate(0.000000,512.000000) scale(0.100000,-0.100000)"
fill="#0E6B5A" stroke="none">
<path d="M1228 4949 c-60 -9 -141 -53 -180 -98 -58 -66 -79 -129 -85 -256 l-6
-115 -191 0 c-105 0 -220 -5 -255 -10 -178 -25 -316 -164 -342 -343 -11 -82
-11 -3212 0 -3294 27 -182 165 -319 347 -344 42 -6 515 -8 1190 -7 1087 3
1123 4 1143 22 29 26 29 86 0 112 -20 18 -58 19 -1199 24 l-1178 5 -43 30
c-24 17 -57 50 -74 74 l-30 43 -3 1284 -2 1284 2240 0 2239 0 3 -694 c3 -666
4 -695 22 -715 26 -29 86 -29 112 0 18 20 19 54 22 1062 1 626 -1 1070 -7
1111 -26 182 -162 320 -344 347 -34 5 -148 9 -253 9 l-191 0 -6 116 c-5 104
-9 123 -36 179 -94 191 -333 237 -494 96 -20 -18 -51 -61 -68 -96 -27 -56 -31
-75 -36 -179 l-6 -116 -317 0 -317 0 -6 116 c-5 104 -9 123 -36 179 -94 191
-333 237 -494 96 -20 -18 -51 -61 -68 -96 -27 -56 -31 -75 -36 -179 l-6 -116
-317 0 -317 0 -6 115 c-4 92 -10 125 -30 168 -34 75 -79 122 -150 156 -69 33
-120 41 -189 30z m138 -170 c18 -11 42 -35 53 -53 20 -32 21 -48 21 -326 0
-278 -1 -294 -21 -326 -30 -49 -77 -74 -139 -74 -62 0 -109 25 -139 74 -20 32
-21 48 -21 327 0 276 1 296 20 327 11 18 34 41 52 52 45 27 129 27 174 -1z
m1280 0 c18 -11 42 -35 53 -53 20 -32 21 -48 21 -326 0 -278 -1 -294 -21 -326
-30 -49 -77 -74 -139 -74 -62 0 -109 25 -139 74 -20 32 -21 48 -21 327 0 276
1 296 20 327 11 18 34 41 52 52 45 27 129 27 174 -1z m1280 0 c18 -11 42 -35
53 -53 20 -32 21 -48 21 -326 0 -278 -1 -294 -21 -326 -30 -49 -77 -74 -139
-74 -62 0 -109 25 -139 74 -20 32 -21 48 -21 327 0 276 1 296 20 327 11 18 34
41 52 52 45 27 129 27 174 -1z m-2963 -574 c4 -92 10 -125 30 -168 34 -75 79
-122 152 -158 160 -79 345 -10 422 158 20 43 26 76 30 168 l6 115 317 0 317 0
6 -115 c4 -92 10 -125 30 -168 34 -75 79 -122 152 -158 156 -77 337 -13 416
146 27 56 31 75 36 179 l6 116 317 0 317 0 6 -116 c5 -104 9 -123 36 -179 94
-191 333 -237 494 -96 20 18 51 61 68 96 27 56 31 75 36 179 l6 117 243 -3
242 -3 43 -30 c24 -17 57 -50 74 -74 l30 -43 3 -324 3 -324 -2241 0 -2240 0 0
310 c0 339 1 346 59 412 64 73 87 78 347 78 l231 0 6 -115z"/>
<path d="M920 2948 c-50 -14 -96 -62 -109 -114 -14 -56 -14 -253 0 -310 13
-52 60 -98 116 -113 50 -14 337 -14 388 0 54 15 101 61 114 115 14 55 14 257
0 307 -15 56 -61 103 -113 116 -54 13 -347 13 -396 -1z m360 -268 l0 -120
-160 0 -160 0 0 120 0 120 160 0 160 0 0 -120z"/>
<path d="M1880 2948 c-50 -14 -96 -62 -109 -114 -14 -56 -14 -253 0 -310 13
-52 60 -98 116 -113 50 -14 337 -14 388 0 54 15 101 61 114 115 14 55 14 257
0 307 -15 56 -61 103 -113 116 -54 13 -347 13 -396 -1z m360 -268 l0 -120
-160 0 -160 0 0 120 0 120 160 0 160 0 0 -120z"/>
<path d="M2840 2948 c-50 -14 -96 -62 -109 -114 -14 -56 -14 -253 0 -310 13
-52 60 -98 116 -113 50 -14 337 -14 388 0 54 15 101 61 114 115 14 55 14 257
0 307 -15 56 -61 103 -113 116 -54 13 -347 13 -396 -1z m360 -268 l0 -120
-160 0 -160 0 0 120 0 120 160 0 160 0 0 -120z"/>
<path d="M3800 2948 c-50 -14 -96 -62 -109 -114 -14 -56 -14 -253 0 -310 13
-52 60 -98 116 -113 50 -14 337 -14 388 0 54 15 101 61 114 115 14 55 14 257
0 307 -15 56 -61 103 -113 116 -54 13 -347 13 -396 -1z m360 -268 l0 -120
-160 0 -160 0 0 120 0 120 160 0 160 0 0 -120z"/>
<path d="M920 2228 c-50 -14 -96 -62 -109 -114 -14 -56 -14 -253 0 -310 13
-52 60 -98 116 -113 50 -14 337 -14 388 0 54 15 101 61 114 115 14 55 14 257
0 307 -15 56 -61 103 -113 116 -54 13 -347 13 -396 -1z m360 -268 l0 -120
-160 0 -160 0 0 120 0 120 160 0 160 0 0 -120z"/>
<path d="M1880 2228 c-50 -14 -96 -62 -109 -114 -14 -56 -14 -253 0 -310 13
-52 60 -98 116 -113 50 -14 337 -14 388 0 54 15 101 61 114 115 14 55 14 257
0 307 -15 56 -61 103 -113 116 -54 13 -347 13 -396 -1z m360 -268 l0 -120
-160 0 -160 0 0 120 0 120 160 0 160 0 0 -120z"/>
<path d="M2840 2229 c-50 -15 -96 -63 -109 -115 -14 -55 -14 -257 0 -309 19
-68 80 -117 146 -117 47 0 73 26 73 72 0 39 -24 70 -53 70 -15 0 -17 15 -17
124 l0 124 174 4 c154 3 176 5 195 22 29 26 29 86 0 112 -19 17 -40 19 -198
21 -97 1 -192 -3 -211 -8z"/>
<path d="M3828 2229 c-268 -22 -537 -165 -711 -379 -165 -203 -244 -458 -226
-726 9 -137 40 -248 104 -379 102 -209 261 -368 470 -470 171 -84 244 -100
455 -100 211 0 284 16 455 100 325 158 545 479 573 835 16 197 -16 368 -103
545 -188 385 -583 608 -1017 574z m271 -164 c344 -72 614 -342 686 -686 8 -39
15 -119 15 -179 0 -60 -7 -140 -15 -179 -72 -344 -342 -614 -686 -686 -90 -19
-268 -19 -358 0 -344 72 -614 342 -686 686 -19 90 -19 268 0 358 71 340 340
611 678 685 85 19 279 19 366 1z"/>
<path d="M4083 1228 l-323 -323 -153 153 c-134 133 -156 152 -185 152 -42 0
-72 -30 -72 -73 0 -29 21 -53 188 -220 172 -172 190 -187 222 -187 33 0 59 23
393 358 321 322 357 361 357 390 0 42 -30 72 -72 72 -29 0 -65 -33 -355 -322z"/>
<path d="M920 1508 c-50 -14 -96 -62 -109 -114 -14 -56 -14 -253 0 -310 13
-52 60 -98 116 -113 50 -14 337 -14 388 0 54 15 101 61 114 115 14 55 14 257
0 307 -15 56 -61 103 -113 116 -54 13 -347 13 -396 -1z m360 -268 l0 -120
-160 0 -160 0 0 120 0 120 160 0 160 0 0 -120z"/>
<path d="M1880 1508 c-50 -14 -96 -62 -109 -114 -14 -56 -14 -253 0 -310 13
-52 60 -98 116 -113 50 -14 337 -14 388 0 54 15 101 61 114 115 14 55 14 257
0 307 -15 56 -61 103 -113 116 -54 13 -347 13 -396 -1z m360 -268 l0 -120
-160 0 -160 0 0 120 0 120 160 0 160 0 0 -120z"/>
</g>
</svg>
