<?xml version="1.0" standalone="no"?>
<!DOCTYPE svg PUBLIC "-//W3C//DTD SVG 20010904//EN"
 "http://www.w3.org/TR/2001/REC-SVG-20010904/DTD/svg10.dtd">
<svg version="1.0" xmlns="http://www.w3.org/2000/svg"
 width="700.000000pt" height="700.000000pt" viewBox="0 0 256.000000 256.000000"
 preserveAspectRatio="xMidYMid meet">

<g transform="translate(0.000000,256.000000) scale(0.100000,-0.100000)"
fill="#0E6B5A" stroke="none">
<path d="M1150 2549 c-170 -17 -348 -75 -504 -164 -261 -148 -466 -394 -570
-683 -93 -259 -93 -583 0 -844 151 -424 511 -736 957 -829 205 -43 470 -24
669 47 364 131 651 418 782 782 92 258 93 585 0 844 -34 94 -103 228 -159 309
l-45 64 52 3 c57 3 78 15 78 43 0 39 -26 49 -133 49 -146 0 -147 -1 -147 -144
0 -118 6 -136 45 -136 31 0 45 19 45 64 l1 41 28 -32 c73 -86 166 -309 197
-471 19 -100 21 -287 4 -397 -74 -490 -463 -888 -958 -981 -110 -20 -314 -20
-424 0 -487 91 -863 467 -954 954 -20 110 -20 314 0 424 80 425 379 772 783
909 139 47 231 60 406 60 154 0 158 1 166 22 10 26 -2 54 -26 61 -38 10 -212
14 -293 5z"/>
<path d="M1602 2494 c-37 -26 -23 -74 23 -74 42 0 59 44 29 74 -19 20 -24 20
-52 0z"/>
<path d="M1113 2216 c-101 -19 -165 -42 -265 -93 -94 -48 -112 -71 -82 -104 9
-10 22 -19 28 -19 6 0 44 17 86 39 480 247 1042 19 1216 -492 117 -344 -15
-751 -311 -962 -435 -309 -1038 -162 -1272 310 -127 254 -123 530 9 787 41 80
44 112 9 123 -34 11 -52 -8 -101 -109 -76 -154 -93 -230 -93 -416 0 -128 3
-169 21 -235 91 -334 353 -596 687 -687 115 -31 355 -31 470 0 334 91 596 353
687 687 31 115 31 355 0 470 -91 334 -357 600 -687 686 -103 27 -301 34 -402
15z"/>
<path d="M1256 2027 c-14 -10 -17 -25 -14 -72 3 -58 4 -60 33 -63 37 -5 55 19
55 70 0 25 -7 45 -20 58 -23 23 -30 24 -54 7z"/>
<path d="M604 1946 c-3 -8 -4 -25 -2 -38 2 -19 9 -23 38 -23 33 0 35 2 35 35
0 32 -3 35 -33 38 -21 2 -34 -2 -38 -12z"/>
<path d="M1539 1604 l-176 -176 -41 13 c-34 10 -50 10 -83 0 l-42 -13 -91 91
c-90 90 -118 105 -144 79 -26 -26 -11 -54 78 -143 l91 -91 -12 -46 c-23 -85
31 -172 121 -199 115 -35 235 89 200 205 l-12 39 176 176 c174 174 193 200
164 229 -29 29 -55 10 -229 -164z m-208 -273 c16 -16 29 -39 29 -51 0 -28 -52
-80 -80 -80 -28 0 -80 52 -80 80 0 12 13 35 29 51 16 16 39 29 51 29 12 0 35
-13 51 -29z"/>
<path d="M540 1310 c-23 -23 -24 -30 -7 -54 10 -14 25 -17 72 -14 58 3 60 4
63 33 5 37 -19 55 -70 55 -25 0 -45 -7 -58 -20z"/>
<path d="M1897 1313 c-15 -14 -7 -63 12 -73 63 -33 148 9 121 61 -9 15 -22 19
-69 19 -32 0 -61 -3 -64 -7z"/>
<path d="M1241 651 c-18 -33 -13 -89 9 -111 23 -23 30 -24 54 -7 14 10 17 25
14 72 -3 59 -3 60 -35 63 -23 2 -34 -2 -42 -17z"/>
</g>
</svg>
