<?xml version="1.0" standalone="no"?>
<!DOCTYPE svg PUBLIC "-//W3C//DTD SVG 20010904//EN"
 "http://www.w3.org/TR/2001/REC-SVG-20010904/DTD/svg10.dtd">
<svg version="1.0" xmlns="http://www.w3.org/2000/svg"
 width="800.000000pt" height="800.000000pt" viewBox="0 0 512.000000 512.000000"
 preserveAspectRatio="xMidYMid meet">

<g transform="translate(0.000000,512.000000) scale(0.100000,-0.100000)"
fill="#0E6B5A" stroke="none">
<path d="M1915 4590 c-95 -25 -138 -44 -217 -96 -126 -84 -224 -212 -274 -359
-36 -106 -44 -259 -20 -368 74 -330 380 -563 715 -544 180 10 329 77 455 203
382 381 202 1031 -322 1165 -98 25 -242 25 -337 -1z m327 -126 c96 -29 170
-74 243 -148 77 -77 125 -159 150 -252 19 -70 21 -210 5 -279 -18 -73 -73
-183 -118 -234 l-38 -44 -26 44 c-161 274 -559 284 -736 20 l-40 -61 -37 43
c-45 51 -87 133 -111 213 -28 92 -24 239 9 333 101 290 409 450 699 365z"/>
<path d="M2018 4286 c-56 -20 -85 -42 -113 -84 -98 -150 5 -342 186 -342 54 0
139 48 174 98 24 35 30 55 33 110 3 60 0 73 -27 119 -52 89 -164 133 -253 99z"/>
<path d="M3244 3896 c-59 -26 -64 -43 -64 -224 l0 -163 -47 6 c-63 8 -107 -18
-124 -73 -19 -66 13 -105 190 -225 79 -55 98 -51 225 39 121 86 136 104 136
157 0 72 -54 115 -130 103 l-40 -6 0 163 c0 181 -5 198 -66 223 -40 17 -41 17
-80 0z"/>
<path d="M1052 3530 c-80 -32 -135 -116 -135 -204 0 -138 129 -238 265 -205
l52 12 44 -49 c25 -27 136 -144 248 -260 l203 -210 -15 -45 c-36 -101 16 -212
121 -260 131 -60 295 45 295 189 l0 42 205 102 c191 96 207 102 228 89 79 -51
142 -61 212 -37 l47 16 180 -158 c99 -86 204 -177 234 -202 l53 -45 -6 -71
c-5 -62 -3 -79 17 -119 62 -129 225 -160 333 -64 106 93 96 251 -21 333 -53
38 -150 48 -201 22 l-32 -17 -237 207 c-151 133 -236 213 -234 223 2 9 6 39 8
66 12 108 -83 213 -199 223 -111 8 -214 -84 -225 -201 l-5 -52 -206 -101 -206
-101 -43 31 c-39 28 -51 31 -110 29 -37 0 -77 -3 -88 -5 -30 -4 -511 496 -505
526 1 12 4 55 5 97 1 68 -2 80 -27 116 -39 56 -110 93 -178 92 -30 0 -64 -4
-77 -9z"/>
<path d="M3849 3281 l-29 -29 0 -172 c0 -160 -1 -172 -17 -164 -10 4 -35 8
-56 8 -75 0 -125 -89 -88 -156 6 -13 60 -58 119 -100 143 -104 152 -105 287
-5 127 94 138 106 138 158 0 56 -45 103 -100 103 -21 0 -46 -4 -55 -8 -17 -8
-18 4 -18 162 l0 170 -31 31 c-25 25 -39 31 -76 31 -36 0 -50 -6 -74 -29z"/>
<path d="M932 2568 c-17 -17 -17 -2029 0 -2046 17 -17 379 -17 396 0 17 17 17
2029 0 2046 -8 8 -67 12 -198 12 -131 0 -190 -4 -198 -12z"/>
<path d="M2511 2016 c-8 -9 -10 -216 -9 -757 l3 -744 200 0 200 0 3 744 c1
541 -1 748 -9 757 -9 11 -52 14 -194 14 -142 0 -185 -3 -194 -14z"/>
<path d="M1722 1728 c-19 -19 -17 -1191 2 -1207 9 -8 72 -11 202 -9 l189 3 3
604 c2 477 0 606 -10 613 -22 13 -372 10 -386 -4z"/>
<path d="M3295 1297 c-3 -6 -4 -185 -3 -397 l3 -385 189 -3 c130 -2 193 1 202
9 19 16 21 758 2 777 -17 17 -387 17 -393 -1z"/>
</g>
</svg>
